<?xml version="1.0" standalone="no"?>
<!DOCTYPE svg PUBLIC "-//W3C//DTD SVG 20010904//EN"
 "http://www.w3.org/TR/2001/REC-SVG-20010904/DTD/svg10.dtd">
<svg version="1.0" xmlns="http://www.w3.org/2000/svg"
 width="300.000000pt" height="225.000000pt" viewBox="0 0 300.000000 225.000000"
 preserveAspectRatio="xMidYMid meet">
<metadata>
Created by potrace 1.10, written by Peter Selinger 2001-2011
</metadata>
<g transform="translate(0.000000,225.000000) scale(0.100000,-0.100000)"
fill="#000000" stroke="none">
<path d="M1695 1787 c-38 -15 -115 -56 -115 -61 0 -2 18 -2 39 1 35 5 41 2 57
-23 18 -26 19 -55 19 -399 0 -365 0 -371 23 -412 37 -70 87 -70 203 -2 38 23
68 43 67 45 -2 1 -22 -2 -45 -9 -34 -9 -45 -8 -67 6 -62 41 -61 36 -61 443 l0
372 -24 26 c-26 28 -49 31 -96 13z m76 -44 c11 -13 13 -78 11 -351 -4 -369 1
-412 49 -459 15 -15 29 -31 29 -34 0 -4 -13 -12 -30 -19 -25 -10 -34 -10 -55
4 -50 33 -50 36 -50 431 0 339 -2 373 -18 398 -10 15 -15 32 -12 37 10 16 61
11 76 -7z"/>
<path d="M691 1565 c-124 -35 -220 -108 -240 -183 -26 -97 27 -152 203 -207
125 -40 169 -66 192 -113 44 -92 -58 -174 -195 -157 -79 10 -131 33 -131 57 0
19 -1 19 -40 -3 -53 -30 -84 -64 -76 -84 10 -26 86 -55 147 -55 91 0 230 52
318 119 50 37 91 107 91 152 0 85 -31 110 -205 169 -64 21 -132 49 -152 61
-70 43 -76 124 -13 167 27 18 47 22 109 22 93 0 127 -15 124 -53 l-2 -27 46
32 c63 45 97 88 83 102 -17 17 -197 18 -259 1z m199 -31 c0 -7 -9 -18 -20 -24
-15 -8 -26 -7 -45 6 -37 24 -31 34 20 32 29 -1 45 -6 45 -14z m-364 -163 c25
-62 65 -90 189 -131 128 -42 157 -55 186 -84 35 -36 39 -84 10 -110 -19 -18
-20 -17 -36 19 -25 62 -74 98 -165 124 -144 41 -227 89 -231 134 -4 39 11 87
27 87 2 0 11 -17 20 -39z m67 -490 c41 -16 23 -31 -37 -31 -88 0 -139 40 -83
66 17 7 30 6 57 -8 19 -9 48 -22 63 -27z"/>
<path d="M1500 1383 c-20 -8 -100 -72 -100 -81 0 -4 10 -12 23 -17 32 -14 35
-80 6 -136 -29 -58 -90 -149 -99 -149 -4 0 -10 18 -14 40 -15 97 -120 313
-161 332 -29 13 -97 -17 -141 -63 l-29 -31 28 13 c24 11 31 10 55 -8 54 -40
95 -123 132 -268 37 -148 43 -128 -69 -255 -105 -120 -161 -212 -161 -266 0
-27 4 -34 20 -34 17 0 20 7 20 44 0 84 47 149 303 423 210 225 247 283 247
394 0 59 -18 78 -60 62z m27 -89 c-2 -23 -14 -55 -26 -70 l-21 -27 0 31 c0 17
-5 43 -12 57 -11 24 -9 29 12 45 36 28 53 15 47 -36z m-370 24 c33 -36 67
-104 113 -225 41 -111 41 -113 23 -137 -30 -42 -42 -33 -58 44 -21 104 -81
245 -120 282 -27 25 -32 44 -12 51 23 10 34 7 54 -15z"/>
<path d="M2306 1360 c-79 -14 -168 -64 -225 -126 -91 -99 -105 -212 -38 -308
55 -79 228 -106 337 -53 128 62 205 149 216 243 19 162 -114 273 -290 244z
m151 -42 c94 -43 135 -167 88 -262 -30 -59 -42 -56 -42 11 1 62 -20 153 -34
153 -5 0 -9 5 -9 11 0 11 -70 79 -82 79 -5 0 -8 5 -8 10 0 14 54 12 87 -2z
m-119 -24 c86 -36 136 -114 135 -215 0 -121 -61 -186 -165 -177 -105 11 -183
103 -182 214 1 147 96 227 212 178z m-243 -166 c0 -87 23 -141 88 -203 l42
-40 -27 -3 c-59 -7 -151 69 -161 135 -8 48 8 117 35 154 12 16 22 29 23 29 0
0 1 -33 0 -72z"/>
<path d="M2252 1157 c-41 -44 -16 -107 42 -107 62 0 93 74 46 112 -30 24 -62
23 -88 -5z m76 -3 c12 -8 22 -23 21 -32 0 -14 -3 -13 -16 6 -8 12 -22 22 -29
22 -8 0 -14 5 -14 10 0 14 12 12 38 -6z m-24 -39 c15 -22 15 -26 2 -31 -22 -8
-36 4 -36 32 0 31 13 31 34 -1z"/>
<path d="M2045 715 l0 -55 36 0 c24 0 39 5 43 15 3 8 1 15 -4 15 -6 0 -10 -4
-10 -10 0 -5 -9 -10 -20 -10 -29 0 -27 37 3 43 l22 4 -22 2 c-29 1 -33 41 -4
41 11 0 22 -6 24 -12 3 -8 6 -6 6 5 1 13 -7 17 -36 17 l-38 0 0 -55z"/>
<path d="M2145 699 c0 -21 5 -39 10 -39 6 0 10 15 10 33 0 22 5 32 15 32 11 0
15 -10 14 -32 -1 -20 3 -33 10 -33 9 0 11 11 7 38 -6 33 -10 37 -37 39 -28 1
-30 -1 -29 -38z"/>
<path d="M2242 728 c-29 -29 3 -90 37 -69 9 6 7 10 -8 14 -28 7 -27 25 2 29
12 2 22 10 22 18 0 19 -36 25 -53 8z"/>
<path d="M2315 699 c0 -29 4 -39 16 -39 12 0 14 7 11 30 -3 23 0 30 12 30 28
0 17 17 -11 18 -26 0 -28 -2 -28 -39z"/>
<path d="M2389 733 c-1 -5 -3 -31 -4 -60 -3 -56 5 -66 43 -52 32 12 27 37 -10
48 -23 6 -27 9 -12 10 25 1 49 25 39 41 -3 5 0 10 8 10 7 0 19 -17 25 -37 10
-31 9 -40 -5 -55 -9 -10 -11 -18 -5 -18 13 0 20 10 49 73 l22 47 -22 -1 c-12
0 -17 -3 -11 -5 13 -6 7 -44 -7 -44 -8 0 -13 22 -10 43 0 4 -21 7 -49 7 -27 0
-51 -3 -51 -7z m39 -26 c2 -10 -3 -17 -12 -17 -10 0 -16 9 -16 21 0 24 23 21
28 -4z"/>
</g>
</svg>
