<?xml version="1.0" standalone="no"?>
<!DOCTYPE svg PUBLIC "-//W3C//DTD SVG 20010904//EN"
 "http://www.w3.org/TR/2001/REC-SVG-20010904/DTD/svg10.dtd">
<svg version="1.0" xmlns="http://www.w3.org/2000/svg"
 width="1080.000000pt" height="810.000000pt" viewBox="0 0 1080.000000 810.000000"
 preserveAspectRatio="xMidYMid meet">

<g transform="translate(0.000000,810.000000) scale(0.100000,-0.100000)"
fill="#000000" stroke="none">
<path d="M6205 6464 c-90 -21 -122 -33 -207 -74 -76 -38 -278 -164 -278 -174
0 -2 30 4 67 11 170 35 276 -51 317 -259 20 -99 20 -375 1 -1108 -20 -736 -20
-1234 0 -1365 53 -351 160 -479 386 -462 117 9 208 45 384 152 81 50 281 185
274 185 -3 0 -32 -10 -65 -22 -46 -16 -83 -22 -164 -22 -97 -1 -110 1 -163 28
-133 66 -215 223 -236 453 -5 50 -2 378 6 768 8 374 15 892 16 1150 2 462 2
471 -21 542 -25 80 -74 148 -129 176 -34 18 -148 31 -188 21z"/>
<path d="M2835 5694 c-479 -56 -887 -236 -1091 -482 -189 -228 -194 -517 -13
-688 120 -113 341 -217 644 -303 315 -90 427 -137 544 -232 118 -96 170 -214
158 -359 -7 -84 -31 -140 -85 -201 -157 -176 -488 -227 -866 -133 -204 51
-300 132 -255 216 10 18 9 20 -7 14 -10 -4 -70 -38 -133 -75 -279 -165 -342
-250 -253 -339 51 -51 115 -85 231 -125 95 -32 97 -32 291 -32 171 1 205 3
280 24 515 139 924 396 1101 691 61 103 80 170 81 280 1 136 -30 209 -126 306
-91 92 -205 148 -476 233 -482 153 -571 187 -683 261 -90 59 -148 119 -184
190 -24 48 -28 66 -27 145 0 78 3 97 26 140 49 94 118 148 243 192 77 26 88
28 270 28 120 0 212 -5 250 -14 213 -46 291 -129 219 -234 l-26 -38 29 15 c48
24 251 172 319 233 106 92 159 180 131 215 -39 50 -402 93 -592 72z"/>
<path d="M5409 4980 c-38 -11 -137 -76 -189 -124 -57 -52 -170 -174 -170 -184
0 -4 14 -8 31 -9 86 -6 138 -82 146 -215 3 -48 1 -107 -6 -138 -16 -74 -123
-290 -209 -420 -83 -128 -210 -300 -220 -300 -5 0 -18 43 -31 95 -74 316 -256
760 -432 1055 -83 140 -105 168 -150 191 -46 23 -126 25 -193 5 -85 -26 -208
-110 -341 -234 l-76 -71 58 21 c289 102 556 -335 747 -1222 19 -91 38 -195 42
-232 l7 -67 -74 -87 c-41 -48 -148 -171 -239 -273 -351 -393 -411 -472 -513
-673 -76 -150 -98 -212 -104 -304 -6 -80 11 -127 53 -146 20 -10 29 -8 52 9
27 20 27 22 28 134 0 96 5 126 27 192 55 159 153 326 296 505 138 173 234 278
817 892 535 564 617 665 744 918 138 277 161 597 48 676 -24 17 -103 20 -149
6z"/>
<path d="M8440 4914 c-25 -3 -92 -14 -150 -25 -413 -82 -780 -331 -963 -655
-88 -156 -123 -309 -115 -498 17 -366 273 -620 693 -687 111 -17 314 -15 400
4 120 27 275 89 400 162 89 52 258 167 328 223 129 104 252 302 297 476 28
111 28 301 -1 412 -91 352 -369 569 -755 587 -49 3 -109 3 -134 1z m-131 -214
c146 -35 271 -109 379 -225 101 -107 177 -253 207 -396 21 -100 19 -283 -4
-396 -48 -230 -187 -393 -372 -433 -91 -20 -257 -9 -354 24 -292 99 -492 359
-521 679 -12 134 26 316 96 463 122 253 309 346 569 284z"/>
<path d="M7483 2773 c-113 -3 -152 -13 -103 -26 19 -5 20 -14 20 -171 l0 -166
-25 -10 c-56 -21 -23 -30 115 -30 l140 0 0 24 c0 13 3 38 6 55 9 43 -11 40
-26 -3 -13 -41 -24 -46 -100 -46 -44 0 -59 4 -64 16 -11 29 -6 131 7 142 7 6
39 12 72 14 37 2 60 8 63 16 3 11 -10 12 -67 6 l-72 -7 3 74 3 74 58 3 c63 3
87 -8 87 -39 0 -23 16 -25 24 -3 11 29 7 84 -6 82 -7 -1 -68 -4 -135 -5z"/>
<path d="M8723 2661 c-73 -5 -85 -9 -112 -35 -38 -37 -43 -98 -11 -139 l20
-25 -25 -16 c-33 -22 -32 -43 5 -64 16 -9 30 -20 30 -23 0 -3 -11 -16 -25 -29
-79 -75 45 -141 152 -81 47 27 68 59 60 94 -8 30 -39 44 -116 53 -74 8 -102
24 -82 48 8 10 29 16 52 16 21 0 49 4 63 10 34 13 68 68 62 100 -12 63 -11 65
12 68 12 2 22 10 22 18 0 8 -6 13 -12 12 -7 -1 -50 -4 -95 -7z m16 -57 c24
-30 26 -55 10 -87 -23 -43 -61 -49 -103 -16 -28 22 -35 73 -16 110 17 30 83
26 109 -7z m3 -254 c57 -16 61 -58 7 -85 -37 -20 -88 -19 -111 2 -22 20 -23
42 -2 71 17 24 48 28 106 12z"/>
<path d="M7723 2653 c-26 -5 -30 -21 -8 -29 12 -5 15 -27 15 -114 0 -87 -3
-109 -15 -114 -33 -12 -12 -25 40 -24 55 2 76 20 35 31 -22 6 -26 44 -14 143
7 57 28 77 80 77 43 0 54 -26 54 -125 0 -77 -2 -89 -20 -100 -11 -7 -20 -16
-20 -21 0 -13 113 -3 118 11 2 7 -5 12 -18 12 -20 0 -21 4 -20 88 2 129 2 130
-20 152 -25 25 -66 25 -108 0 -40 -25 -42 -25 -42 0 0 20 -9 22 -57 13z"/>
<path d="M8100 2634 c-42 -36 -60 -74 -60 -129 0 -83 47 -135 122 -135 32 0
106 36 95 46 -3 3 -23 0 -45 -5 -26 -7 -49 -8 -65 -2 -36 14 -67 59 -67 97 l0
34 90 0 90 0 0 38 c0 79 -93 112 -160 56z m109 -26 c15 -40 3 -48 -65 -48 -35
0 -64 4 -64 9 0 4 9 20 21 35 28 35 95 38 108 4z"/>
<path d="M8360 2653 c-45 -15 -45 -15 -22 -24 21 -8 22 -14 22 -112 0 -81 -3
-107 -15 -117 -27 -23 -16 -30 47 -27 63 3 92 23 41 29 -28 3 -28 4 -31 81 -3
71 -1 79 22 102 30 30 56 32 63 5 8 -32 23 -12 23 31 0 48 -16 51 -63 9 -19
-16 -38 -30 -42 -30 -3 0 -4 14 0 30 7 31 -5 37 -45 23z"/>
<path d="M8850 2646 c0 -7 8 -16 18 -18 14 -4 30 -40 61 -133 l43 -128 -29
-41 c-16 -22 -42 -47 -58 -56 -17 -8 -32 -16 -34 -18 -3 -1 2 -9 10 -18 12
-11 22 -12 41 -5 37 14 50 38 169 315 18 43 39 81 46 83 7 3 13 11 13 19 0 10
-15 14 -55 14 -30 0 -55 -4 -55 -10 0 -5 9 -10 20 -10 11 0 23 -6 26 -14 6
-17 -56 -178 -71 -183 -6 -2 -21 34 -34 79 -13 46 -26 89 -29 96 -2 8 4 16 17
19 41 11 20 23 -39 23 -44 0 -60 -4 -60 -14z"/>
</g>
</svg>
