<?xml version="1.0" encoding="UTF-8"?>
<svg version="1.1" xmlns="http://www.w3.org/2000/svg" width="1024" height="1024">
<path d="M0 0 C20.16712176 16.29721461 33.41997883 39.56152085 36.3125 65.375 C36.58429931 68.24779269 36.80457059 71.12111751 37 74 C37.0721875 74.88816406 37.144375 75.77632813 37.21875 76.69140625 C38.34316981 103.63063075 26.19014138 128.33991694 9.078125 148.234375 C-7.04739907 165.462499 -31.58893255 176.63947838 -55.07299805 178.20483398 C-58.30173616 178.30282565 -61.51984023 178.32922667 -64.75 178.3125 C-65.89452637 178.30686035 -67.03905273 178.3012207 -68.21826172 178.29541016 C-93.07489362 177.93966128 -115.56371464 168.60410794 -134 152 C-134.76828125 151.31421875 -135.5365625 150.6284375 -136.328125 149.921875 C-154.01092024 133.22832705 -165.47107162 108.83109851 -166.30078125 84.45703125 C-166.32021633 82.57561716 -166.32375961 80.69398078 -166.3125 78.8125 C-166.30404053 77.3109436 -166.30404053 77.3109436 -166.29541016 75.77905273 C-165.85819733 48.78657174 -154.86873333 24.30506922 -135.49853516 5.54589844 C-124.32432469 -4.77613553 -111.42570809 -12.27666377 -97 -17 C-96.36094727 -17.21172852 -95.72189453 -17.42345703 -95.06347656 -17.64160156 C-62.81554947 -27.77024367 -26.30692592 -20.8089176 0 0 Z M-115.13671875 33.234375 C-128.89463975 49.27218006 -132.35690309 67.41822831 -131 88 C-129.37525464 102.05185179 -122.54085257 114.70307986 -113 125 C-112.03707031 126.04414063 -112.03707031 126.04414063 -111.0546875 127.109375 C-100.61543012 137.35016741 -84.54043502 144.13543359 -70 145 C-69.12988281 145.05285156 -68.25976562 145.10570312 -67.36328125 145.16015625 C-49.50546823 145.70852701 -32.76735022 139.88834348 -19.234375 128.171875 C-5.19893156 114.52903138 1.77544365 98.11748383 2.375 78.5 C1.76409691 59.25655263 -5.38749634 42.73003913 -18.9296875 29.05078125 C-32.58039402 16.41428385 -49.64819098 11.58065712 -67.97265625 11.796875 C-86.06127937 12.51118615 -102.62828898 20.15426197 -115.13671875 33.234375 Z " fill="#279D39" transform="translate(836,354)"/>
<path d="M0 0 C0.68771484 0.16628906 1.37542969 0.33257812 2.08398438 0.50390625 C13.18974226 3.22738911 22.96039782 7.58140009 33 13 C33.66 13.33 34.32 13.66 35 14 C32.77565485 19.84026233 29.84592198 25.31651854 26.97753906 30.85791016 C25.99733568 32.75515695 25.02594375 34.65675444 24.0546875 36.55859375 C23.43282744 37.76329755 22.81044982 38.96773435 22.1875 40.171875 C21.62417969 41.2659668 21.06085938 42.36005859 20.48046875 43.48730469 C19 46 19 46 17 47 C14.67273918 46.0034627 12.44501145 44.94925312 10.1875 43.8125 C-8.06365696 34.98398239 -29.61615806 30.26890982 -49.5390625 36.08203125 C-54.32994677 37.86910713 -58.59738346 40.32122042 -61 45 C-62.06672068 49.32476679 -62.27136083 52.91455667 -61.1875 57.25 C-55.96036755 63.82125223 -46.43378845 66.05856017 -38.625 68.3125 C-37.16308228 68.74852539 -37.16308228 68.74852539 -35.67163086 69.19335938 C-30.07765742 70.85057236 -24.4645038 72.43090256 -18.83984375 73.98046875 C21.75777738 85.20618179 21.75777738 85.20618179 34 102 C40.89468706 114.59475013 42.56478568 127.59229418 39.06640625 141.6171875 C34.46398355 156.21681409 25.15138845 167.22948459 12 175 C-16.40452552 188.81080017 -51.47449107 188.5405468 -81.04296875 178.44921875 C-91.30755362 174.77177959 -101.25946976 170.62823543 -110 164 C-109.38169084 159.7067686 -107.8527927 156.43188523 -105.83984375 152.60546875 C-105.53051407 152.01325027 -105.22118439 151.4210318 -104.90248108 150.81086731 C-103.92003983 148.93325402 -102.92893752 147.06037579 -101.9375 145.1875 C-101.26699947 143.9098087 -100.5970714 142.63181682 -99.92773438 141.35351562 C-98.29176712 138.23217084 -96.64800405 135.11500977 -95 132 C-91.01717858 132 -88.35963631 133.79177165 -84.9375 135.625 C-68.91028264 143.90413092 -52.90314204 148.07599664 -34.875 148.3125 C-33.9562207 148.33038574 -33.03744141 148.34827148 -32.09082031 148.36669922 C-23.30724962 148.35567645 -14.91443204 146.73391925 -8 141 C-4.63600745 137.18747511 -4.40531126 133.34179327 -4.609375 128.4296875 C-5.08106353 125.49578486 -6.02657962 123.4124407 -8.14404297 121.29052734 C-15.67682145 116.05266006 -25.35093136 113.89395625 -34.125 111.6875 C-90.26870793 96.98746385 -90.26870793 96.98746385 -101.71875 78.4765625 C-108.7742908 64.8387184 -109.51691974 50.35814545 -104.99609375 35.7578125 C-102.36667529 28.9369448 -98.94742773 23.37062929 -94 18 C-93.37738281 17.32324219 -92.75476563 16.64648438 -92.11328125 15.94921875 C-69.40210684 -6.32936186 -29.04710813 -7.41119631 0 0 Z " fill="#279D39" transform="translate(253,342)"/>
<path d="M0 0 C42.31181051 -3.53341986 42.31181051 -3.53341986 52.35498047 1.77246094 C57.08886014 6.54000104 58.9386671 12.48844444 60.86474609 18.80517578 C62.84241495 24.37071873 66.18521583 29.04439846 69.4375 33.9375 C70.70136008 35.93498843 71.95917754 37.93631291 73.2109375 39.94140625 C74.14631348 41.43244873 74.14631348 41.43244873 75.10058594 42.95361328 C78.29158661 48.07151898 81.4300426 53.22111492 84.5625 58.375 C85.12187256 59.29531006 85.68124512 60.21562012 86.25756836 61.16381836 C89.8579084 67.09752137 93.43442367 73.04535129 97 79 C100.0727372 75.37104988 102.44263042 71.60646531 104.6875 67.4375 C108.96866755 59.65795384 113.55667454 52.07441214 118.1875 44.5 C124.43095074 34.28424481 130.55429066 24.01209639 136.53393555 13.63867188 C137.33118042 12.25905273 137.33118042 12.25905273 138.14453125 10.8515625 C138.60190674 10.05572754 139.05928223 9.25989258 139.53051758 8.43994141 C140.25791138 7.23217041 140.25791138 7.23217041 141 6 C141.74817993 4.38303223 141.74817993 4.38303223 142.51147461 2.73339844 C145.32659759 -0.35873507 145.80334795 -0.43114189 149.76855469 -0.68115234 C151.73658383 -0.68020421 153.70477478 -0.64640527 155.671875 -0.5859375 C156.70942932 -0.57744781 157.74698364 -0.56895813 158.815979 -0.56021118 C162.12837771 -0.52663641 165.43833778 -0.45134541 168.75 -0.375 C170.99605858 -0.34490586 173.24215534 -0.3175291 175.48828125 -0.29296875 C180.99301888 -0.22683222 186.49633525 -0.12644303 192 0 C187.81863507 7.4094384 183.65170266 14.78755148 178.9375 21.875 C172.44874528 31.77554657 166.20516336 41.82597826 159.94824219 51.87402344 C157.39191958 55.97567188 154.8277543 60.0723892 152.26367188 64.16918945 C146.90862274 72.72716158 141.5664573 81.29299437 136.25 89.875 C135.77997559 90.63321045 135.30995117 91.3914209 134.82568359 92.17260742 C133.82491916 93.79020914 132.84454716 95.42052865 131.88012695 97.06005859 C130.40652315 99.36432258 128.91401686 101.37468141 127.20385742 103.49072266 C116.72875697 117.23863497 117.49055952 131.96848189 117.78112793 148.44036865 C117.83399246 152.12165289 117.82374997 155.80279139 117.81835938 159.484375 C117.8123197 166.65950935 117.90831295 173.82282299 118 181 C103.15 181 88.3 181 73 181 C73.06703125 176.69582031 73.1340625 172.39164063 73.203125 167.95703125 C73.22298758 164.46015621 73.23062852 160.9637138 73.23020935 157.4668045 C73.23303697 153.81020396 73.25587477 150.15659387 73.33251953 146.50073242 C73.69515589 128.34114915 72.53467048 114.27846237 61.4798584 99.05441284 C59.46204941 96.2531903 57.73231824 93.33457662 55.96875 90.3671875 C54.81689581 88.53368941 53.66073435 86.70288925 52.5 84.875 C51.87037354 83.87549316 51.24074707 82.87598633 50.59204102 81.84619141 C48.73186499 78.89501614 46.86612018 75.94741869 45 73 C43.95650535 71.34408128 42.91350562 69.68785054 41.87109375 68.03125 C37.82246725 61.60194294 33.75669142 55.18372105 29.671875 48.77734375 C28.51039543 46.9557427 27.34893738 45.13412794 26.1875 43.3125 C25.61201416 42.40999512 25.03652832 41.50749023 24.44360352 40.57763672 C19.23600174 32.39765293 14.09483348 24.17678452 8.97338867 15.94262695 C5.36041191 10.13234854 5.36041191 10.13234854 1.5703125 4.4375 C0 2 0 2 0 0 Z " fill="#279D39" transform="translate(298,342)"/>
<path d="M0 0 C14.85 0 29.7 0 45 0 C45 48.18 45 96.36 45 146 C75.03 146 105.06 146 136 146 C136 157.55 136 169.1 136 181 C91.12 181 46.24 181 0 181 C0 121.27 0 61.54 0 0 Z " fill="#239C36" transform="translate(511,342)"/>
<path d="M0 0 C0.66 0 1.32 0 2 0 C1.46020882 6.79015024 0.43945417 13.30601502 -1.06640625 19.9453125 C-1.26475571 20.84120087 -1.46310516 21.73708923 -1.66746521 22.66012573 C-2.29373441 25.48298683 -2.9279651 28.30398673 -3.5625 31.125 C-3.99206739 33.05456938 -4.42110862 34.98425597 -4.84960938 36.9140625 C-5.89270023 41.61099771 -6.94657118 46.30532529 -8 51 C11.305 51.495 11.305 51.495 31 52 C26.98084027 58.02873959 22.93303804 63.93764706 18.625 69.75 C17.72587891 70.96719727 17.72587891 70.96719727 16.80859375 72.20898438 C11.60185333 79.23540005 6.30010455 86.18770875 0.98535156 93.13256836 C-4.73788935 100.62328073 -10.34300308 108.19648846 -15.9140625 115.80078125 C-18.91136505 119.8908702 -21.94870218 123.95008317 -25 128 C-26.04310829 124.76415625 -25.92451559 122.56964474 -25.21142578 119.26318359 C-25.01437042 118.32896576 -24.81731506 117.39474792 -24.61428833 116.43222046 C-24.39352631 115.43107208 -24.17276428 114.42992371 -23.9453125 113.3984375 C-23.72430878 112.36562653 -23.50330505 111.33281555 -23.27560425 110.26870728 C-22.80716969 108.08742682 -22.33449798 105.90705263 -21.85791016 103.72753906 C-21.12669342 100.38274616 -20.40791535 97.03547113 -19.69140625 93.6875 C-19.23509728 91.57015671 -18.77808984 89.45296381 -18.3203125 87.3359375 C-18.10359894 86.33074066 -17.88688538 85.32554382 -17.66360474 84.28988647 C-17.46024506 83.36197296 -17.25688538 82.43405945 -17.04736328 81.47802734 C-16.7796965 80.25036148 -16.7796965 80.25036148 -16.50662231 78.99789429 C-16 77 -16 77 -15 75 C-28.2 75.33 -41.4 75.66 -55 76 C-53.56916796 72.42291991 -52.66660327 70.25845429 -50.5234375 67.3125 C-50.02585937 66.62470459 -49.52828125 65.93690918 -49.015625 65.22827148 C-48.47421875 64.49294189 -47.9328125 63.7576123 -47.375 63 C-46.80523438 62.21890869 -46.23546875 61.43781738 -45.6484375 60.63305664 C-39.20006459 51.83516208 -32.57364515 43.171864 -25.93261719 34.51904297 C-24.10043815 32.13091471 -22.27199775 29.73998828 -20.4453125 27.34765625 C-11.98085144 16.26347635 -11.98085144 16.26347635 -8.0078125 11.12890625 C-7.54101074 10.52498047 -7.07420898 9.92105469 -6.59326172 9.29882812 C-5.33974371 7.67850459 -4.08401894 6.05988892 -2.828125 4.44140625 C-1.00395602 2.15635315 -1.00395602 2.15635315 0 0 Z " fill="#279D38" transform="translate(783,368)"/>
<path d="M0 0 C12 0 12 0 15.7421875 3.5234375 C16.82604823 5.11436267 17.86864808 6.73394765 18.875 8.375 C20.05437599 10.13086816 21.23674711 11.88472771 22.421875 13.63671875 C23.01162109 14.53310059 23.60136719 15.42948242 24.20898438 16.35302734 C26.98432187 20.45474615 30.04542903 24.31208963 33.125 28.1875 C37.60024679 33.89443748 42.02543379 39.63411958 46.375 45.4375 C46.82633301 46.03908936 47.27766602 46.64067871 47.74267578 47.26049805 C50.58636134 51.06706732 53.38887278 54.90261884 56.18212891 58.74633789 C56.89833405 59.73171036 57.61453918 60.71708282 58.35244751 61.73231506 C58.89613983 62.48065109 59.43983215 63.22898712 60 64 C59.99777939 63.21295181 59.99555878 62.42590363 59.99327087 61.61500549 C59.97326887 54.2130967 59.95802634 46.81120092 59.94818783 39.40927219 C59.9429598 35.60348423 59.93586362 31.79771852 59.92456055 27.99194336 C59.9137288 24.32207456 59.90772256 20.65222722 59.90512276 16.98234367 C59.90326903 15.57925008 59.8996494 14.17615771 59.89426994 12.7730732 C59.88705581 10.8143032 59.88659191 8.8555118 59.88647461 6.89672852 C59.884254 5.77976089 59.88203339 4.66279327 59.87974548 3.51197815 C60 1 60 1 61 0 C62.83115883 -0.09851171 64.66619933 -0.12972629 66.5 -0.125 C67.5003125 -0.12757813 68.500625 -0.13015625 69.53125 -0.1328125 C72 0 72 0 73 1 C73.09511266 3.64738089 73.12555635 6.26859001 73.11352539 8.91625977 C73.11367142 9.74545929 73.11381744 10.57465881 73.1139679 11.4289856 C73.11326851 14.18315198 73.10547493 16.93725161 73.09765625 19.69140625 C73.09579216 21.59569766 73.09436822 23.49998955 73.09336853 25.40428162 C73.08954263 30.42667963 73.07971173 35.44904892 73.06866455 40.47143555 C73.05845198 45.5922812 73.05387124 50.71313148 73.04882812 55.83398438 C73.03808953 65.88933557 73.02101224 75.9446654 73 86 C71.080317 86.09144035 69.15937627 86.15673328 67.23828125 86.2109375 C65.63400269 86.26967041 65.63400269 86.26967041 63.99731445 86.32958984 C60.52396083 85.94765391 59.47647804 85.19079564 57.1875 82.625 C56.08558883 81.11125163 55.02450238 79.56717492 54 78 C53.41589355 77.18055908 52.83178711 76.36111816 52.22998047 75.5168457 C51.03092102 73.83273142 49.84703937 72.13770597 48.67871094 70.43212891 C46.26567237 66.93610066 43.69553234 63.56826133 41.125 60.1875 C40.15523955 58.89007757 39.18651979 57.59187673 38.21875 56.29296875 C33.72409205 50.2815067 29.161592 44.32149392 24.60595703 38.35620117 C23.96513184 37.51677979 23.32430664 36.6773584 22.6640625 35.8125 C21.82029053 34.70841797 21.82029053 34.70841797 20.95947266 33.58203125 C18.29125085 30.06606889 15.64826426 26.53101902 13 23 C12.67 43.79 12.34 64.58 12 86 C8.04 86 4.08 86 0 86 C0 57.62 0 29.24 0 0 Z " fill="#2D9E3D" transform="translate(277,572)"/>
<path d="M0 0 C1.1772036 0.00735672 1.1772036 0.00735672 2.37818909 0.01486206 C3.26679123 0.01881989 4.15539337 0.02277771 5.07092285 0.02685547 C9.17415755 0.0748834 13.27718524 0.12482104 17.38014221 0.19308472 C19.53593801 0.22474721 21.69191289 0.24606579 23.84791565 0.25656128 C26.96499064 0.27191988 30.0801792 0.31947399 33.1967926 0.37374878 C34.14823654 0.37295319 35.09968048 0.37215759 36.07995605 0.37133789 C44.38485861 0.5784759 50.80699776 3.22768003 57.13819885 8.61593628 C63.48799944 16.31266426 63.99431395 23.32801672 63.20069885 33.11593628 C61.49362618 40.36827687 57.1856704 44.89606376 51.20069885 49.11593628 C48.48876792 50.68248729 47.40544511 51.11593628 44.20069885 51.11593628 C44.64872864 51.78536255 45.09675842 52.45478882 45.55836487 53.14450073 C47.62791318 56.23829827 49.69556385 59.33335975 51.76319885 62.42843628 C52.46767151 63.48095581 53.17214417 64.53347534 53.89796448 65.6178894 C58.42286008 72.39480678 62.85790532 79.22088205 67.20069885 86.11593628 C62.25309305 87.10724117 58.11643249 87.38254736 53.20069885 86.11593628 C49.17659033 82.66520117 46.85233015 77.51708232 44.36631775 72.91992188 C38.49186383 61.65303501 38.49186383 61.65303501 29.20655823 53.54953003 C22.63049433 51.99371918 18.16237017 53.02669519 11.20069885 54.11593628 C10.87069885 64.67593628 10.54069885 75.23593628 10.20069885 86.11593628 C5.91069885 86.11593628 1.62069885 86.11593628 -2.79930115 86.11593628 C-2.82242398 75.0505877 -2.84021593 63.98524483 -2.85111332 52.91987705 C-2.85634228 47.78234062 -2.86344016 42.64482065 -2.8747406 37.5072937 C-2.88556902 32.55362218 -2.89157788 27.59996654 -2.89417839 22.6462841 C-2.89603272 20.75196012 -2.89965349 18.85763704 -2.9050312 16.96331978 C-2.91224104 14.31959242 -2.91329211 11.67593157 -2.91282654 9.03219604 C-2.91642181 8.24097855 -2.92001709 7.44976105 -2.92372131 6.63456726 C-2.9113536 0.18759033 -2.9113536 0.18759033 0 0 Z M10.20069885 11.11593628 C10.20069885 21.67593628 10.20069885 32.23593628 10.20069885 43.11593628 C14.30507385 43.17781128 18.40944885 43.23968628 22.63819885 43.30343628 C23.91364563 43.33074829 25.18909241 43.3580603 26.50318909 43.38619995 C37.35556636 43.48971469 37.35556636 43.48971469 46.81568909 38.73410034 C49.16260789 36.0980054 50.87959194 33.64811226 51.20069885 30.11593628 C51.30382385 29.04343628 51.40694885 27.97093628 51.51319885 26.86593628 C51.12715242 22.23337908 49.95466182 18.86979964 47.20069885 15.11593628 C41.75935996 11.52696807 36.41981011 10.9867781 30.0249176 11.01828003 C28.98166321 11.02077759 27.93840881 11.02327515 26.86354065 11.02584839 C24.89574646 11.03950439 24.89574646 11.03950439 22.88819885 11.05343628 C16.60788635 11.08437378 16.60788635 11.08437378 10.20069885 11.11593628 Z " fill="#2E9F3E" transform="translate(531.7993011474609,571.8840637207031)"/>
<path d="M0 0 C-1.31224548 3.93673644 -2.91910327 6.22719294 -6 9 C-10.18459245 6.96185732 -14.20166342 4.64050022 -18.24609375 2.33984375 C-25.54922296 -1.21330989 -35.14418696 -1.19288331 -42.92578125 0.71875 C-51.31130908 3.87445698 -57.18857632 8.79597812 -61 17 C-64.92482013 28.66456544 -65.28797786 39.23163502 -59.78125 50.4921875 C-55.60131474 57.38908068 -50.10199384 61.26454107 -42.75 64.375 C-31.54097875 66.24317021 -22.11408139 65.10543877 -12.23828125 59.40625 C-8.98875168 55.91286393 -9.22372961 52.86119966 -9.1875 48.25 C-9.125625 45.5275 -9.06375 42.805 -9 40 C-16.92 40 -24.84 40 -33 40 C-33 36.7 -33 33.4 -33 30 C-21.12 30 -9.24 30 3 30 C3.165 35.135625 3.33 40.27125 3.5 45.5625 C3.57283203 47.16939697 3.64566406 48.77629395 3.72070312 50.43188477 C3.8798874 60.64471116 3.8798874 60.64471116 1.39453125 64.47290039 C-0.64315119 66.30851265 -2.60730502 67.66844885 -5 69 C-6.03125 69.63550781 -7.0625 70.27101563 -8.125 70.92578125 C-20.32043168 76.80808865 -32.95454323 79.46369809 -46.375 75.875 C-59.05450514 71.30101744 -67.92775549 63.35964609 -73.76269531 51.28857422 C-79.26833214 39.17552317 -79.03694891 27.54768075 -75 15 C-73.29456997 11.42741812 -71.29297113 8.22191841 -69 5 C-68.2575 3.948125 -67.515 2.89625 -66.75 1.8125 C-58.72861628 -6.39118789 -48.24203419 -12.21594653 -36.6328125 -13.02734375 C-22.58706937 -12.88146808 -10.50047908 -9.91711913 0 0 Z " fill="#2B9E3B" transform="translate(727,583)"/>
<path d="M0 0 C19.14 0 38.28 0 58 0 C59 5 59 5 59 11 C43.49 11 27.98 11 12 11 C12 19.58 12 28.16 12 37 C25.53 36.67 39.06 36.34 53 36 C53 39.63 53 43.26 53 47 C39.47 47 25.94 47 12 47 C12 56.24 12 65.48 12 75 C15.38121094 74.98839844 18.76242187 74.97679687 22.24609375 74.96484375 C25.5059398 74.95705425 28.76578483 74.95097688 32.02563477 74.94506836 C34.29842591 74.94002675 36.5712138 74.93319363 38.84399414 74.92456055 C42.10303551 74.91248739 45.36203417 74.90677013 48.62109375 74.90234375 C49.64400009 74.89718246 50.66690643 74.89202118 51.72080994 74.88670349 C52.66170975 74.88662796 53.60260956 74.88655243 54.57202148 74.88647461 C55.40475082 74.884254 56.23748016 74.88203339 57.09544373 74.87974548 C59 75 59 75 60 76 C60 79.3 60 82.6 60 86 C40.2 86 20.4 86 0 86 C0 57.62 0 29.24 0 0 Z " fill="#239A34" transform="translate(412,572)"/>
<path d="M0 0 C0.99261337 0.00222061 1.98522675 0.00444122 3.00791931 0.00672913 C4.12900589 0.00680466 5.25009247 0.00688019 6.40515137 0.00695801 C8.2348069 0.01469994 8.2348069 0.01469994 10.10142517 0.02259827 C11.96377052 0.02472069 11.96377052 0.02472069 13.86373901 0.02688599 C17.16982383 0.03154861 20.47584039 0.04053955 23.78190613 0.05158997 C27.15338042 0.06180625 30.52486175 0.06638407 33.89634705 0.07142639 C40.5155091 0.08248057 47.13462964 0.09975792 53.75376892 0.12025452 C53.75376892 3.75025452 53.75376892 7.38025452 53.75376892 11.12025452 C38.90376892 11.12025452 24.05376892 11.12025452 8.75376892 11.12025452 C9.08376892 19.37025452 9.41376892 27.62025452 9.75376892 36.12025452 C13.95933533 36.10285217 13.95933533 36.10285217 18.24986267 36.08509827 C20.95371894 36.07730818 23.65757398 36.07123115 26.36143494 36.06532288 C28.24620622 36.06028208 30.13097357 36.05344953 32.01573181 36.04481506 C34.71878528 36.03273835 37.42178723 36.02702383 40.12486267 36.02259827 C40.97277878 36.01743698 41.82069489 36.0122757 42.69430542 36.00695801 C44.71447961 36.00676257 46.73454826 36.05819241 48.75376892 36.12025452 C51.35718548 38.72367108 49.75376892 43.43846751 49.75376892 47.12025452 C36.22376892 47.12025452 22.69376892 47.12025452 8.75376892 47.12025452 C8.75376892 56.36025452 8.75376892 65.60025452 8.75376892 75.12025452 C24.26376892 75.12025452 39.77376892 75.12025452 55.75376892 75.12025452 C55.75376892 78.75025452 55.75376892 82.38025452 55.75376892 86.12025452 C36.28376892 86.12025452 16.81376892 86.12025452 -3.24623108 86.12025452 C-3.28633989 64.94725972 -3.28633989 64.94725972 -3.2950592 55.95423889 C-3.30104778 49.80668785 -3.30814848 43.65915163 -3.32167053 37.51161194 C-3.33249895 32.55794042 -3.33850782 27.60428478 -3.34110832 22.65060234 C-3.34296265 20.75627835 -3.34658342 18.86195528 -3.35196114 16.96763802 C-3.35917097 14.32391066 -3.36022205 11.68024981 -3.35975647 9.03651428 C-3.36335175 8.24529678 -3.36694702 7.45407928 -3.37065125 6.6388855 C-3.35826028 0.17978826 -3.35826028 0.17978826 0 0 Z " fill="#269C37" transform="translate(164.24623107910156,571.8797454833984)"/>
<path d="M0 0 C4.47070654 -0.60505803 8.54447065 -0.80199528 13 0 C16.39906266 2.67435685 18.0122881 6.21260299 20 10 C20.77865111 11.33531243 21.56566378 12.66577153 22.359375 13.9921875 C24.08941266 16.88584008 25.80238982 19.78804676 27.49609375 22.703125 C29.80568762 26.67159737 32.12950108 30.63006581 34.5 34.5625 C35.1290625 35.61566406 35.758125 36.66882813 36.40625 37.75390625 C36.9321875 38.49511719 37.458125 39.23632812 38 40 C38.66 40 39.32 40 40 40 C41.22780805 38.40479243 41.22780805 38.40479243 42.3984375 36.29296875 C42.87240967 35.48706299 43.34638184 34.68115723 43.8347168 33.85083008 C44.34301025 32.97193115 44.85130371 32.09303223 45.375 31.1875 C46.44991479 29.36085496 47.52679311 27.5353642 48.60546875 25.7109375 C49.43957275 24.29893066 49.43957275 24.29893066 50.29052734 22.85839844 C53.01799181 18.29782232 55.84458802 13.80174084 58.6875 9.3125 C59.46262939 8.08406372 59.46262939 8.08406372 60.25341797 6.83081055 C63.86559276 1.13440724 63.86559276 1.13440724 65 0 C67.01964199 -0.07244053 69.04167124 -0.08377188 71.0625 -0.0625 C72.16722656 -0.05347656 73.27195312 -0.04445313 74.41015625 -0.03515625 C75.26480469 -0.02355469 76.11945313 -0.01195312 77 0 C75.32649372 4.90443748 72.60157725 8.98820897 69.8125 13.3125 C68.73759633 14.99565654 67.6634142 16.67927402 66.58984375 18.36328125 C66.01476074 19.26385254 65.43967773 20.16442383 64.84716797 21.09228516 C61.49130023 26.37491597 58.18585882 31.6890893 54.875 37 C53.60196935 39.04192037 52.32855994 41.08360468 51.0546875 43.125 C50.51312012 43.99382813 49.97155273 44.86265625 49.41357422 45.7578125 C48.30151626 47.52174002 47.15666805 49.26499792 46 51 C45.75952354 53.68004202 45.62726502 56.26554203 45.5859375 58.94921875 C45.56657135 59.72183548 45.5472052 60.49445221 45.5272522 61.29048157 C45.46751521 63.7560424 45.42109514 66.22165007 45.375 68.6875 C45.33681475 70.3600463 45.29776269 72.03257305 45.2578125 73.70507812 C45.16181867 77.80322647 45.07776623 81.90146688 45 86 C41.04 86 37.08 86 33 86 C33.04825928 85.09572266 33.09651855 84.19144531 33.14624023 83.25976562 C34.03577056 62.14646243 32.36412811 48.24337653 19.15771484 30.92675781 C15.33834664 25.74610767 12.05071153 20.23283419 8.6875 14.75 C7.44203673 12.76522923 6.19599177 10.78082329 4.94921875 8.796875 C3.14249596 5.92060576 1.46956081 3.06316117 0 0 Z " fill="#279C38" transform="translate(779,572)"/>
<path d="M0 0 C0.66 0.33 1.32 0.66 2 1 C1.67 28.72 1.34 56.44 1 85 C19.48 85 37.96 85 57 85 C57 82.36 57 79.72 57 77 C41.82 77 26.64 77 11 77 C11 76.67 11 76.34 11 76 C26.51 76 42.02 76 58 76 C58 79.3 58 82.6 58 86 C38.53 86 19.06 86 -1 86 C-1.04010881 64.82700521 -1.04010881 64.82700521 -1.04882812 55.83398438 C-1.05481671 49.68643333 -1.0619174 43.53889711 -1.07543945 37.39135742 C-1.08626787 32.4376859 -1.09227674 27.48403026 -1.09487724 22.53034782 C-1.09673157 20.63602384 -1.10035234 18.74170076 -1.10573006 16.8473835 C-1.11293989 14.20365614 -1.11399097 11.55999529 -1.11352539 8.91625977 C-1.11712067 8.12504227 -1.12071594 7.33382477 -1.12442017 6.51863098 C-1.11405216 1.11405216 -1.11405216 1.11405216 0 0 Z " fill="#1F9528" transform="translate(162,572)"/>
<path d="M0 0 C11.88 0 23.76 0 36 0 C36 10.56 36 21.12 36 32 C35.01 32 34.02 32 33 32 C33.33 22.1 33.66 12.2 34 2 C23.44 2 12.88 2 2 2 C2 3.98 2 5.96 2 8 C2.69150146 7.99476318 3.38300293 7.98952637 4.09545898 7.98413086 C7.20946352 7.963425 10.32345361 7.95036037 13.4375 7.9375 C14.52611328 7.92912109 15.61472656 7.92074219 16.73632812 7.91210938 C17.77080078 7.90888672 18.80527344 7.90566406 19.87109375 7.90234375 C20.82943115 7.89710693 21.78776855 7.89187012 22.77514648 7.88647461 C25 8 25 8 26 9 C26.08631874 10.34267413 26.10706473 11.68974322 26.09765625 13.03515625 C26.09443359 13.84404297 26.09121094 14.65292969 26.08789062 15.48632812 C26.07951172 16.33646484 26.07113281 17.18660156 26.0625 18.0625 C26.05798828 18.91650391 26.05347656 19.77050781 26.04882812 20.65039062 C26.03700373 22.76695663 26.01906769 24.88348685 26 27 C25.67 27 25.34 27 25 27 C25 21.39 25 15.78 25 10 C16.75 10 8.5 10 0 10 C0 6.7 0 3.4 0 0 Z " fill="#1F972C" transform="translate(694,613)"/>
<path d="M0 0 C0.33 1.32 0.66 2.64 1 4 C14.2 4 27.4 4 41 4 C40.34 5.32 39.68 6.64 39 8 C38.34 8 37.68 8 37 8 C37 7.34 37 6.68 37 6 C24.79 6 12.58 6 0 6 C-1 3 -1 3 0 0 Z " fill="#149626" transform="translate(773,416)"/>
<path d="M0 0 C0.66 0 1.32 0 2 0 C1.48446121 6.49850211 0.53332291 12.66226532 -1 19 C-3.58464442 14.61991557 -2.81479148 11.88874887 -2 7 C-2.66 6.67 -3.32 6.34 -4 6 C-2.7260411 3.96166576 -1.38938077 1.96147874 0 0 Z " fill="#42A54C" transform="translate(783,368)"/>
<path d="M0 0 C3.96 0 7.92 0 12 0 C11 3 11 3 9.375 3.8125 C5.97771623 4.08070661 3.2085354 3.04894427 0 2 C0 1.34 0 0.68 0 0 Z " fill="#3DA44A" transform="translate(844,572)"/>
<path d="M0 0 C4.29 0 8.58 0 13 0 C12.67 1.32 12.34 2.64 12 4 C10.88625 3.95875 9.7725 3.9175 8.625 3.875 C4.95633975 3.58878141 4.95633975 3.58878141 3 6 C2.01 4.02 1.02 2.04 0 0 Z " fill="#52AE5F" transform="translate(779,572)"/>
<path d="M0 0 C0.99 0 1.98 0 3 0 C3.625 1.8125 3.625 1.8125 4 4 C3.01 5.485 3.01 5.485 2 7 C2 6.34 2 5.68 2 5 C1.01 5 0.02 5 -1 5 C-1.33 5.66 -1.66 6.32 -2 7 C-2.66 6.34 -3.32 5.68 -4 5 C-2.1875 2.5 -2.1875 2.5 0 0 Z " fill="#30A13F" transform="translate(778,375)"/>
<path d="M0 0 C1.0528418 0.07831055 1.0528418 0.07831055 2.12695312 0.15820312 C3.85588054 0.28757865 5.58425355 0.42432531 7.3125 0.5625 C7.3125 0.8925 7.3125 1.2225 7.3125 1.5625 C1.3725 1.8925 -4.5675 2.2225 -10.6875 2.5625 C-10.6875 1.9025 -10.6875 1.2425 -10.6875 0.5625 C-6.99441024 -0.66852992 -3.80699288 -0.30925152 0 0 Z " fill="#0F921D" transform="translate(219.6875,372.4375)"/>
<path d="M0 0 C1.32 1.32 2.64 2.64 4 4 C-0.29 4 -4.58 4 -9 4 C-8.67 3.34 -8.34 2.68 -8 2 C-5.36 2 -2.72 2 0 2 C0 1.34 0 0.68 0 0 Z " fill="#159324" transform="translate(595,654)"/>
<path d="M0 0 C2.475 0.495 2.475 0.495 5 1 C3.125 5.75 3.125 5.75 2 8 C1.34 8 0.68 8 0 8 C0 5.36 0 2.72 0 0 Z " fill="#35A03E" transform="translate(283,355)"/>
<path d="M0 0 C0 0.66 0 1.32 0 2 C-1.32 2 -2.64 2 -4 2 C-4 2.66 -4 3.32 -4 4 C-5.8125 4.625 -5.8125 4.625 -8 5 C-8.99 4.34 -9.98 3.68 -11 3 C-9.73160474 2.49384702 -8.46016898 1.99530901 -7.1875 1.5 C-6.12595703 1.08234375 -6.12595703 1.08234375 -5.04296875 0.65625 C-3 0 -3 0 0 0 Z " fill="#3CA345" transform="translate(190,343)"/>
<path d="M0 0 C0.33 0.99 0.66 1.98 1 3 C-4.29230769 6.07692308 -4.29230769 6.07692308 -7.875 5.6875 C-8.57625 5.460625 -9.2775 5.23375 -10 5 C-6.66666667 3.33333333 -3.33333333 1.66666667 0 0 Z " fill="#43A84E" transform="translate(578,610)"/>
<path d="M0 0 C2.37948772 0.17625835 3.70225849 0.69719773 5.37890625 2.40234375 C6.62115486 3.90649092 7.81376056 5.45129851 9 7 C8.01 7 7.02 7 6 7 C5.67 6.01 5.34 5.02 5 4 C3.68352881 3.30062468 2.34977849 2.63270867 1 2 C0.67 1.34 0.34 0.68 0 0 Z " fill="#4EAC54" transform="translate(838,358)"/>
<path d="M0 0 C0.33 0.66 0.66 1.32 1 2 C1.99 2.33 2.98 2.66 4 3 C2.02 5.97 2.02 5.97 0 9 C-1.10844919 5.67465243 -0.84454356 3.37817425 0 0 Z " fill="#46A34C" transform="translate(758,487)"/>
<path d="M0 0 C0.33 1.32 0.66 2.64 1 4 C-0.8125 5.5625 -0.8125 5.5625 -3 7 C-3.99 6.67 -4.98 6.34 -6 6 C-4.02 4.02 -2.04 2.04 0 0 Z " fill="#51AE5A" transform="translate(701,359)"/>
<path d="M0 0 C2.74277578 3.19990508 4.6302836 6.00499382 6 10 C5.01 9.67 4.02 9.34 3 9 C2.3125 6.9375 2.3125 6.9375 2 5 C1.34 5 0.68 5 0 5 C0 3.35 0 1.7 0 0 Z " fill="#38A142" transform="translate(349,347)"/>
<path d="M0 0 C0 0.66 0 1.32 0 2 C-0.66 2 -1.32 2 -2 2 C-2.33 2.99 -2.66 3.98 -3 5 C-4.98 5 -6.96 5 -9 5 C-2.40909091 0 -2.40909091 0 0 0 Z " fill="#3CA345" transform="translate(726,343)"/>
<path d="M0 0 C0.33 0 0.66 0 1 0 C1.2226746 1.43534841 1.42761906 2.87345525 1.625 4.3125 C1.74101562 5.11300781 1.85703125 5.91351563 1.9765625 6.73828125 C2 9 2 9 0 12 C-0.66 12 -1.32 12 -2 12 C-1.34 8.04 -0.68 4.08 0 0 Z " fill="#64B76D" transform="translate(249,470)"/>
<path d="M0 0 C2 3 2 3 1.625 5.1875 C1.41875 5.785625 1.2125 6.38375 1 7 C-0.32 7.33 -1.64 7.66 -3 8 C-2.01 5.36 -1.02 2.72 0 0 Z " fill="#46A951" transform="translate(582,602)"/>
</svg>
